<?xml version="1.0" encoding="UTF-8" standalone="no"?>
<svg
   width="700pt"
   height="700pt"
   version="1.1"
   viewBox="0 0 700 700"
   id="svg191"
   sodipodi:docname="noun-apple-5102418.svg"
   inkscape:version="1.1.2 (0a00cf5339, 2022-02-04)"
   xmlns:inkscape="http://www.inkscape.org/namespaces/inkscape"
   xmlns:sodipodi="http://sodipodi.sourceforge.net/DTD/sodipodi-0.dtd"
   xmlns="http://www.w3.org/2000/svg"
   xmlns:svg="http://www.w3.org/2000/svg">
  <sodipodi:namedview
     id="namedview193"
     pagecolor="#ffffff"
     bordercolor="#666666"
     borderopacity="1.0"
     inkscape:pageshadow="2"
     inkscape:pageopacity="0.0"
     inkscape:pagecheckerboard="0"
     inkscape:document-units="pt"
     showgrid="false"
     inkscape:zoom="0.1767767"
     inkscape:cx="-1747.968"
     inkscape:cy="1173.7973"
     inkscape:window-width="1862"
     inkscape:window-height="1016"
     inkscape:window-x="0"
     inkscape:window-y="0"
     inkscape:window-maximized="1"
     inkscape:current-layer="g189" />
  <defs
     id="defs89">
    <symbol
       id="ac"
       overflow="visible">
      <path
         d="m18.766-1.125c-0.96875 0.5-1.9805 0.875-3.0312 1.125-1.043 0.25781-2.1367 0.39062-3.2812 0.39062-3.3984 0-6.0898-0.94531-8.0781-2.8438-1.9922-1.9062-2.9844-4.4844-2.9844-7.7344 0-3.2578 0.99219-5.8359 2.9844-7.7344 1.9883-1.9062 4.6797-2.8594 8.0781-2.8594 1.1445 0 2.2383 0.13281 3.2812 0.39062 1.0508 0.25 2.0625 0.625 3.0312 1.125v4.2188c-0.98047-0.65625-1.9453-1.1406-2.8906-1.4531-0.94922-0.3125-1.9492-0.46875-3-0.46875-1.875 0-3.3516 0.60547-4.4219 1.8125-1.0742 1.1992-1.6094 2.8555-1.6094 4.9688 0 2.1055 0.53516 3.7617 1.6094 4.9688 1.0703 1.1992 2.5469 1.7969 4.4219 1.7969 1.0508 0 2.0508-0.14844 3-0.45312 0.94531-0.3125 1.9102-0.80078 2.8906-1.4688z"
         id="path2" />
    </symbol>
    <symbol
       id="e"
       overflow="visible">
      <path
         d="m13.734-11.141c-0.4375-0.19531-0.87109-0.34375-1.2969-0.4375-0.41797-0.10156-0.83984-0.15625-1.2656-0.15625-1.2617 0-2.2305 0.40625-2.9062 1.2188-0.67969 0.80469-1.0156 1.9531-1.0156 3.4531v7.0625h-4.8906v-15.312h4.8906v2.5156c0.625-1 1.3438-1.7266 2.1562-2.1875 0.82031-0.46875 1.8008-0.70312 2.9375-0.70312 0.16406 0 0.34375 0.011719 0.53125 0.03125 0.19531 0.011719 0.47656 0.039062 0.84375 0.078125z"
         id="path5" />
    </symbol>
    <symbol
       id="b"
       overflow="visible">
      <path
         d="m17.641-7.7031v1.4062h-11.453c0.125 1.1484 0.53906 2.0078 1.25 2.5781 0.70703 0.57422 1.7031 0.85938 2.9844 0.85938 1.0312 0 2.082-0.14844 3.1562-0.45312 1.082-0.3125 2.1914-0.77344 3.3281-1.3906v3.7656c-1.1562 0.4375-2.3125 0.76562-3.4688 0.98438-1.1562 0.22656-2.3125 0.34375-3.4688 0.34375-2.7734 0-4.9297-0.70312-6.4688-2.1094-1.5312-1.4062-2.2969-3.3789-2.2969-5.9219 0-2.5 0.75391-4.4609 2.2656-5.8906 1.5078-1.4375 3.582-2.1562 6.2188-2.1562 2.4062 0 4.332 0.73047 5.7812 2.1875 1.4453 1.4492 2.1719 3.3828 2.1719 5.7969zm-5.0312-1.625c0-0.92578-0.27344-1.6719-0.8125-2.2344-0.54297-0.57031-1.25-0.85938-2.125-0.85938-0.94922 0-1.7188 0.26562-2.3125 0.79688s-0.96484 1.2969-1.1094 2.2969z"
         id="path8" />
    </symbol>
    <symbol
       id="l"
       overflow="visible">
      <path
         d="m9.2188-6.8906c-1.0234 0-1.793 0.17188-2.3125 0.51562-0.51172 0.34375-0.76562 0.85547-0.76562 1.5312 0 0.625 0.20703 1.1172 0.625 1.4688 0.41406 0.34375 0.98828 0.51562 1.7188 0.51562 0.92578 0 1.7031-0.32812 2.3281-0.98438 0.63281-0.66406 0.95312-1.4922 0.95312-2.4844v-0.5625zm7.4688-1.8438v8.7344h-4.9219v-2.2656c-0.65625 0.92969-1.3984 1.6055-2.2188 2.0312-0.82422 0.41406-1.8242 0.625-3 0.625-1.5859 0-2.8711-0.45703-3.8594-1.375-0.99219-0.92578-1.4844-2.1289-1.4844-3.6094 0-1.7891 0.61328-3.1016 1.8438-3.9375 1.2383-0.84375 3.1797-1.2656 5.8281-1.2656h2.8906v-0.39062c0-0.76953-0.30859-1.332-0.92188-1.6875-0.61719-0.36328-1.5703-0.54688-2.8594-0.54688-1.0547 0-2.0312 0.10547-2.9375 0.3125-0.89844 0.21094-1.7305 0.52344-2.5 0.9375v-3.7344c1.0391-0.25 2.0859-0.44141 3.1406-0.57812 1.0625-0.13281 2.125-0.20312 3.1875-0.20312 2.7578 0 4.75 0.54688 5.9688 1.6406 1.2266 1.0859 1.8438 2.8555 1.8438 5.3125z"
         id="path11" />
    </symbol>
    <symbol
       id="c"
       overflow="visible">
      <path
         d="m7.7031-19.656v4.3438h5.0469v3.5h-5.0469v6.5c0 0.71094 0.14062 1.1875 0.42188 1.4375s0.83594 0.375 1.6719 0.375h2.5156v3.5h-4.1875c-1.9375 0-3.3125-0.39844-4.125-1.2031-0.80469-0.8125-1.2031-2.1797-1.2031-4.1094v-6.5h-2.4219v-3.5h2.4219v-4.3438z"
         id="path14" />
    </symbol>
    <symbol
       id="k"
       overflow="visible">
      <path
         d="m12.766-13.078v-8.2031h4.9219v21.281h-4.9219v-2.2188c-0.66797 0.90625-1.4062 1.5703-2.2188 1.9844s-1.7578 0.625-2.8281 0.625c-1.8867 0-3.4336-0.75-4.6406-2.25-1.2109-1.5-1.8125-3.4258-1.8125-5.7812 0-2.3633 0.60156-4.2969 1.8125-5.7969 1.207-1.5 2.7539-2.25 4.6406-2.25 1.0625 0 2 0.21484 2.8125 0.64062 0.82031 0.42969 1.5664 1.0859 2.2344 1.9688zm-3.2188 9.9219c1.0391 0 1.8359-0.37891 2.3906-1.1406 0.55078-0.76953 0.82812-1.8828 0.82812-3.3438 0-1.457-0.27734-2.5664-0.82812-3.3281-0.55469-0.76953-1.3516-1.1562-2.3906-1.1562-1.043 0-1.8398 0.38672-2.3906 1.1562-0.55469 0.76172-0.82812 1.8711-0.82812 3.3281 0 1.4609 0.27344 2.5742 0.82812 3.3438 0.55078 0.76172 1.3477 1.1406 2.3906 1.1406z"
         id="path17" />
    </symbol>
    <symbol
       id="j"
       overflow="visible">
      <path
         d="m10.5-3.1562c1.0508 0 1.8516-0.37891 2.4062-1.1406 0.55078-0.76953 0.82812-1.8828 0.82812-3.3438 0-1.457-0.27734-2.5664-0.82812-3.3281-0.55469-0.76953-1.3555-1.1562-2.4062-1.1562-1.0547 0-1.8594 0.38672-2.4219 1.1562-0.55469 0.77344-0.82812 1.8828-0.82812 3.3281 0 1.4492 0.27344 2.5586 0.82812 3.3281 0.5625 0.77344 1.3672 1.1562 2.4219 1.1562zm-3.25-9.9219c0.67578-0.88281 1.4219-1.5391 2.2344-1.9688 0.82031-0.42578 1.7656-0.64062 2.8281-0.64062 1.8945 0 3.4453 0.75 4.6562 2.25 1.207 1.5 1.8125 3.4336 1.8125 5.7969 0 2.3555-0.60547 4.2812-1.8125 5.7812-1.2109 1.5-2.7617 2.25-4.6562 2.25-1.0625 0-2.0078-0.21094-2.8281-0.625-0.8125-0.42578-1.5586-1.0859-2.2344-1.9844v2.2188h-4.8906v-21.281h4.8906z"
         id="path20" />
    </symbol>
    <symbol
       id="i"
       overflow="visible">
      <path
         d="m0.34375-15.312h4.8906l4.125 10.391 3.5-10.391h4.8906l-6.4375 16.766c-0.64844 1.6953-1.4023 2.8828-2.2656 3.5625-0.86719 0.6875-2 1.0312-3.4062 1.0312h-2.8438v-3.2188h1.5312c0.83203 0 1.4375-0.13672 1.8125-0.40625 0.38281-0.26172 0.67969-0.73047 0.89062-1.4062l0.14062-0.42188z"
         id="path23" />
    </symbol>
    <symbol
       id="a"
       overflow="visible">
      <path
         d="m2.5781-20.406h6.6875l4.6562 10.922 4.6719-10.922h6.6875v20.406h-4.9844v-14.938l-4.7031 11.016h-3.3281l-4.7031-11.016v14.938h-4.9844z"
         id="path26" />
    </symbol>
    <symbol
       id="g"
       overflow="visible">
      <path
         d="m2.5781-20.406h5.25v12.234c0 1.6875 0.27344 2.8984 0.82812 3.625 0.55078 0.71875 1.4531 1.0781 2.7031 1.0781 1.2578 0 2.1641-0.35938 2.7188-1.0781 0.55078-0.72656 0.82812-1.9375 0.82812-3.625v-12.234h5.2656v12.234c0 2.8867-0.73047 5.0391-2.1875 6.4531-1.4492 1.4062-3.6562 2.1094-6.625 2.1094-2.9609 0-5.1641-0.70312-6.6094-2.1094-1.4492-1.4141-2.1719-3.5664-2.1719-6.4531z"
         id="path29" />
    </symbol>
    <symbol
       id="h"
       overflow="visible">
      <path
         d="m2.5781-20.406h5.25v7.7656h7.7656v-7.7656h5.2656v20.406h-5.2656v-8.6562h-7.7656v8.6562h-5.25z"
         id="path32" />
    </symbol>
    <symbol
       id="f"
       overflow="visible">
      <path
         d="m14.953-3.7188h-8.2188l-1.3125 3.7188h-5.2812l7.5625-20.406h6.2656l7.5625 20.406h-5.2812zm-6.9062-3.7812h5.5781l-2.7812-8.125z"
         id="path35" />
    </symbol>
    <symbol
       id="ab"
       overflow="visible">
      <path
         d="m7.8281-16.438v12.453h1.8906c2.1562 0 3.8008-0.53125 4.9375-1.5938 1.1328-1.0625 1.7031-2.6133 1.7031-4.6562 0-2.0195-0.57031-3.5547-1.7031-4.6094-1.125-1.0625-2.7734-1.5938-4.9375-1.5938zm-5.25-3.9688h5.5469c3.0938 0 5.3984 0.21875 6.9219 0.65625 1.5195 0.4375 2.8203 1.1875 3.9062 2.25 0.95703 0.91797 1.6641 1.9805 2.125 3.1875 0.46875 1.1992 0.70312 2.5586 0.70312 4.0781 0 1.543-0.23438 2.918-0.70312 4.125-0.46094 1.2109-1.168 2.2773-2.125 3.2031-1.0938 1.0547-2.4062 1.8047-3.9375 2.25-1.5312 0.4375-3.8281 0.65625-6.8906 0.65625h-5.5469z"
         id="path38" />
    </symbol>
    <symbol
       id="aa"
       overflow="visible">
      <path
         d="m2.5781-20.406h5.25v7.4375l7.5938-7.4375h6.1094l-9.8281 9.6562 10.844 10.75h-6.5938l-8.125-8.0469v8.0469h-5.25z"
         id="path41" />
    </symbol>
    <symbol
       id="z"
       overflow="visible">
      <path
         d="m11.891-16.969c-1.6055 0-2.8516 0.59375-3.7344 1.7812-0.875 1.1875-1.3125 2.8555-1.3125 5 0 2.1484 0.4375 3.8125 1.3125 5 0.88281 1.1797 2.1289 1.7656 3.7344 1.7656 1.6133 0 2.8633-0.58594 3.75-1.7656 0.88281-1.1875 1.3281-2.8516 1.3281-5 0-2.1445-0.44531-3.8125-1.3281-5-0.88672-1.1875-2.1367-1.7812-3.75-1.7812zm0-3.8125c3.2812 0 5.8477 0.9375 7.7031 2.8125 1.8633 1.875 2.7969 4.4688 2.7969 7.7812 0 3.3047-0.93359 5.8906-2.7969 7.7656-1.8555 1.875-4.4219 2.8125-7.7031 2.8125-3.2734 0-5.8398-0.9375-7.7031-2.8125-1.8672-1.875-2.7969-4.4609-2.7969-7.7656 0-3.3125 0.92969-5.9062 2.7969-7.7812 1.8633-1.875 4.4297-2.8125 7.7031-2.8125z"
         id="path44" />
    </symbol>
    <symbol
       id="y"
       overflow="visible">
      <path
         d="m0.14062-20.406h18.812v3.9688h-6.7656v16.438h-5.2656v-16.438h-6.7812z"
         id="path47" />
    </symbol>
    <symbol
       id="x"
       overflow="visible">
      <path
         d="m2.5781-20.406h5.25v20.406h-5.25z"
         id="path50" />
    </symbol>
    <symbol
       id="w"
       overflow="visible">
      <path
         d="m10.75-12.516c0.82031 0 1.4453-0.17969 1.875-0.54688 0.4375-0.36328 0.65625-0.89844 0.65625-1.6094 0-0.69531-0.21875-1.2266-0.65625-1.5938-0.42969-0.375-1.0547-0.5625-1.875-0.5625h-2.9219v4.3125zm0.17188 8.9375c1.0625 0 1.8594-0.22266 2.3906-0.67188 0.53125-0.44531 0.79688-1.125 0.79688-2.0312 0-0.88281-0.26562-1.5469-0.79688-1.9844-0.52344-0.4375-1.3203-0.65625-2.3906-0.65625h-3.0938v5.3438zm4.8906-7.3438c1.1328 0.32422 2.0078 0.92969 2.625 1.8125 0.625 0.88672 0.9375 1.9688 0.9375 3.25 0 1.9688-0.66797 3.4375-2 4.4062-1.3359 0.96875-3.3555 1.4531-6.0625 1.4531h-8.7344v-20.406h7.8906c2.832 0 4.8828 0.42969 6.1562 1.2812 1.2812 0.85547 1.9219 2.2266 1.9219 4.1094 0 1-0.23438 1.8516-0.70312 2.5469-0.46875 0.6875-1.1484 1.2031-2.0312 1.5469z"
         id="path53" />
    </symbol>
    <symbol
       id="v"
       overflow="visible">
      <path
         d="m2.5781-20.406h5.25v16.422h9.25v3.9844h-14.5z"
         id="path56" />
    </symbol>
    <symbol
       id="u"
       overflow="visible">
      <path
         d="m12.422-21.281v3.2188h-2.7031c-0.6875 0-1.1719 0.125-1.4531 0.375-0.27344 0.25-0.40625 0.6875-0.40625 1.3125v1.0625h4.1875v3.5h-4.1875v11.812h-4.8906v-11.812h-2.4375v-3.5h2.4375v-1.0625c0-1.6641 0.46094-2.8984 1.3906-3.7031 0.92578-0.80078 2.3672-1.2031 4.3281-1.2031z"
         id="path59" />
    </symbol>
    <symbol
       id="d"
       overflow="visible">
      <path
         d="m9.6406-12.188c-1.0859 0-1.9141 0.39062-2.4844 1.1719-0.57422 0.78125-0.85938 1.9062-0.85938 3.375s0.28516 2.5938 0.85938 3.375c0.57031 0.77344 1.3984 1.1562 2.4844 1.1562 1.0625 0 1.875-0.38281 2.4375-1.1562 0.57031-0.78125 0.85938-1.9062 0.85938-3.375s-0.28906-2.5938-0.85938-3.375c-0.5625-0.78125-1.375-1.1719-2.4375-1.1719zm0-3.5c2.6328 0 4.6914 0.71484 6.1719 2.1406 1.4766 1.418 2.2188 3.3867 2.2188 5.9062 0 2.5117-0.74219 4.4805-2.2188 5.9062-1.4805 1.418-3.5391 2.125-6.1719 2.125-2.6484 0-4.7148-0.70703-6.2031-2.125-1.4922-1.4258-2.2344-3.3945-2.2344-5.9062 0-2.5195 0.74219-4.4883 2.2344-5.9062 1.4883-1.4258 3.5547-2.1406 6.2031-2.1406z"
         id="path62" />
    </symbol>
    <symbol
       id="t"
       overflow="visible">
      <path
         d="m16.547-12.766c0.61328-0.94531 1.3477-1.6719 2.2031-2.1719 0.85156-0.5 1.7891-0.75 2.8125-0.75 1.7578 0 3.0977 0.54688 4.0156 1.6406 0.92578 1.0859 1.3906 2.6562 1.3906 4.7188v9.3281h-4.9219v-7.9844-0.35938c0.007813-0.13281 0.015625-0.32031 0.015625-0.5625 0-1.082-0.16406-1.8633-0.48438-2.3438-0.3125-0.48828-0.82422-0.73438-1.5312-0.73438-0.92969 0-1.6484 0.38672-2.1562 1.1562-0.51172 0.76172-0.77344 1.8672-0.78125 3.3125v7.5156h-4.9219v-7.9844c0-1.6953-0.14844-2.7852-0.4375-3.2656-0.29297-0.48828-0.8125-0.73438-1.5625-0.73438-0.9375 0-1.6641 0.38672-2.1719 1.1562-0.51172 0.76172-0.76562 1.8594-0.76562 3.2969v7.5312h-4.9219v-15.312h4.9219v2.2344c0.60156-0.86328 1.2891-1.5156 2.0625-1.9531 0.78125-0.4375 1.6406-0.65625 2.5781-0.65625 1.0625 0 2 0.25781 2.8125 0.76562 0.8125 0.51172 1.4258 1.2305 1.8438 2.1562z"
         id="path65" />
    </symbol>
    <symbol
       id="s"
       overflow="visible">
      <path
         d="m17.75-9.3281v9.3281h-4.9219v-7.1094c0-1.3438-0.03125-2.2656-0.09375-2.7656s-0.16797-0.86719-0.3125-1.1094c-0.1875-0.3125-0.44922-0.55469-0.78125-0.73438-0.32422-0.17578-0.69531-0.26562-1.1094-0.26562-1.0234 0-1.8242 0.39844-2.4062 1.1875-0.58594 0.78125-0.875 1.8711-0.875 3.2656v7.5312h-4.8906v-21.281h4.8906v8.2031c0.73828-0.88281 1.5195-1.5391 2.3438-1.9688 0.83203-0.42578 1.75-0.64062 2.75-0.64062 1.7695 0 3.1133 0.54688 4.0312 1.6406 0.91406 1.0859 1.375 2.6562 1.375 4.7188z"
         id="path68" />
    </symbol>
    <symbol
       id="r"
       overflow="visible">
      <path
         d="m2.5781-20.406h5.875l7.4219 14v-14h4.9844v20.406h-5.875l-7.4219-14v14h-4.9844z"
         id="path71" />
    </symbol>
    <symbol
       id="q"
       overflow="visible">
      <path
         d="m2.1875-5.9688v-9.3438h4.9219v1.5312c0 0.83594-0.007813 1.875-0.015625 3.125-0.011719 1.25-0.015625 2.0859-0.015625 2.5 0 1.2422 0.03125 2.1328 0.09375 2.6719 0.070313 0.54297 0.17969 0.93359 0.32812 1.1719 0.20703 0.32422 0.47266 0.57422 0.79688 0.75 0.32031 0.16797 0.69141 0.25 1.1094 0.25 1.0195 0 1.8203-0.39062 2.4062-1.1719 0.58203-0.78125 0.875-1.8672 0.875-3.2656v-7.5625h4.8906v15.312h-4.8906v-2.2188c-0.74219 0.89844-1.5234 1.5586-2.3438 1.9844-0.82422 0.41406-1.7344 0.625-2.7344 0.625-1.7617 0-3.1055-0.53906-4.0312-1.625-0.92969-1.082-1.3906-2.6602-1.3906-4.7344z"
         id="path74" />
    </symbol>
    <symbol
       id="p"
       overflow="visible">
      <path
         d="m17.75-9.3281v9.3281h-4.9219v-7.1406c0-1.3203-0.03125-2.2344-0.09375-2.7344s-0.16797-0.86719-0.3125-1.1094c-0.1875-0.3125-0.44922-0.55469-0.78125-0.73438-0.32422-0.17578-0.69531-0.26562-1.1094-0.26562-1.0234 0-1.8242 0.39844-2.4062 1.1875-0.58594 0.78125-0.875 1.8711-0.875 3.2656v7.5312h-4.8906v-15.312h4.8906v2.2344c0.73828-0.88281 1.5195-1.5391 2.3438-1.9688 0.83203-0.42578 1.75-0.64062 2.75-0.64062 1.7695 0 3.1133 0.54688 4.0312 1.6406 0.91406 1.0859 1.375 2.6562 1.375 4.7188z"
         id="path77" />
    </symbol>
    <symbol
       id="o"
       overflow="visible">
      <path
         d="m2.5781-20.406h8.7344c2.5938 0 4.582 0.57812 5.9688 1.7344 1.3945 1.1484 2.0938 2.7891 2.0938 4.9219 0 2.1367-0.69922 3.7812-2.0938 4.9375-1.3867 1.1562-3.375 1.7344-5.9688 1.7344h-3.4844v7.0781h-5.25zm5.25 3.8125v5.7031h2.9219c1.0195 0 1.8047-0.25 2.3594-0.75 0.5625-0.5 0.84375-1.2031 0.84375-2.1094 0-0.91406-0.28125-1.6172-0.84375-2.1094-0.55469-0.48828-1.3398-0.73438-2.3594-0.73438z"
         id="path80" />
    </symbol>
    <symbol
       id="n"
       overflow="visible">
      <path
         d="m2.3594-15.312h4.8906v15.031c0 2.0508-0.49609 3.6172-1.4844 4.7031-0.98047 1.082-2.4062 1.625-4.2812 1.625h-2.4219v-3.2188h0.85938c0.92578 0 1.5625-0.21094 1.9062-0.625 0.35156-0.41797 0.53125-1.2461 0.53125-2.4844zm0-5.9688h4.8906v4h-4.8906z"
         id="path83" />
    </symbol>
    <symbol
       id="m"
       overflow="visible">
      <path
         d="m14.719-14.828v3.9844c-0.65625-0.45703-1.3242-0.79688-2-1.0156-0.66797-0.21875-1.3594-0.32812-2.0781-0.32812-1.3672 0-2.4336 0.40234-3.2031 1.2031-0.76172 0.79297-1.1406 1.9062-1.1406 3.3438 0 1.4297 0.37891 2.543 1.1406 3.3438 0.76953 0.79297 1.8359 1.1875 3.2031 1.1875 0.75781 0 1.4844-0.10938 2.1719-0.32812 0.6875-0.22656 1.3203-0.56641 1.9062-1.0156v4c-0.76172 0.28125-1.5391 0.48828-2.3281 0.625-0.78125 0.14453-1.5742 0.21875-2.375 0.21875-2.7617 0-4.9219-0.70703-6.4844-2.125-1.5547-1.4141-2.3281-3.3828-2.3281-5.9062 0-2.5312 0.77344-4.5039 2.3281-5.9219 1.5625-1.4141 3.7227-2.125 6.4844-2.125 0.80078 0 1.5938 0.074219 2.375 0.21875 0.78125 0.13672 1.5547 0.35156 2.3281 0.64062z"
         id="path86" />
    </symbol>
  </defs>
  <g
     id="g189">
    <path
       d="m 430.37215,231.60649 c -24.434,-3.9023 -48.59,-1.7148 -71.973,6.4922 -2.543,0.89062 -5.1289,1.418 -7.7109,2 6.9219,-55.578 41.848,-86.023 104.63,-90.031 9.1523,-0.58203 16.078,-8.4688 15.496,-17.602 -0.58203,-9.1602 -8.7734,-16 -17.602,-15.496 -41.273,2.6445 -73.996,16.121 -97.273,38.457 -3.6797,-19.441 -11.367,-39.227 -26.594,-54.453 -25.809,-25.808998 -64.895,-30.194998 -92.871,-29.534998 -19.82,0.58203 -35.801,16.566 -36.383,36.409998 -0.76172,28.125 3.7422,67.047 29.535,92.836 24.059,24.074 59.535,29.598 86.996,29.598 0.64844,0 1.2656,-0.0234 1.9023,-0.0273 -0.46484,2.8828 -0.49219,6.082 -0.82422,9.0625 -1.5781,-0.42969 -3.1797,-0.68359 -4.7383,-1.2305 -23.414,-8.2109 -47.582,-10.375 -71.988,-6.4922 -39.457,6.3438 -74.09,27.668 -97.52,60.039 -23.43,32.387 -32.832,71.953 -26.488,111.39 6.4922,40.461 32.266,97.938 64.133,143.06 40.734,57.676 84.438,85.961 123.17,79.773 6.9258,-1.1133 12.336,-3.1914 17.113,-5.0352 10.496,-4.0156 18.117,-4.0312 28.609,0.0156 4.7617,1.832 10.168,3.9023 17.113,5.0195 3.5,0.56641 7.043,0.83984 10.625,0.83984 35.957,0 75.5,-28.191 112.54,-80.617 31.863,-45.109 57.641,-102.6 64.133,-143.06 13.059,-81.43 -42.574,-158.34 -124.03,-171.42 z m -177.31,-54.355 c -18.379,-18.379 -20.305,-50.793 -19.82,-68.453 0.0664,-2.3633 1.832,-4.1289 4.1602,-4.1953 1.4219,-0.0508 2.9453,-0.0664 4.5625,-0.0664 18.262,0 47.035,2.9961 63.926,19.879 18.391,18.391 20.305,50.793 19.801,68.488 -0.0664,2.3281 -1.8125,4.082 -4.1602,4.1445 -17.531,0.55469 -50.07,-1.4023 -68.469,-19.797 z m 268.59,220.54 c -5.668,35.348 -29.727,88.469 -58.48,129.17 -32.574,46.082 -65.867,70.219 -90.816,66.176 -3.5273,-0.56641 -6.7539,-1.8125 -10.496,-3.2383 -6.5898,-2.543 -14.785,-5.6836 -26.195,-5.6836 -11.414,0 -19.605,3.1406 -26.18,5.6836 -3.7422,1.4219 -6.9766,2.6719 -10.496,3.2383 -25.211,3.9375 -58.238,-20.059 -90.816,-66.176 -28.758,-40.707 -52.812,-93.828 -58.48,-129.17 -4.9375,-30.715 2.3984,-61.512 20.625,-86.703 18.234,-25.211 45.188,-41.805 75.887,-46.742 18.859,-3.0312 37.625,-1.3281 55.758,5.0352 22.02,7.7227 45.32,7.7227 67.402,0 18.168,-6.3438 36.934,-8.0469 55.746,-5.0352 63.418,10.184 106.71,70.043 96.543,133.45 z"
       id="path91"
       inkscape:export-filename="/home/elena/_developerlena/season-fruits/images/apple.png"
       inkscape:export-xdpi="63"
       inkscape:export-ydpi="63" />
    <path
       d="m 264.23215,296.07649 c -4.2109,0 -8.4688,0.32422 -12.773,1.0195 -21.969,3.543 -41.254,15.41 -54.27,33.434 -13.047,18.004 -18.297,40.023 -14.766,61.996 1.3086,8.1602 8.3555,13.957 16.352,13.957 0.875,0 1.7461,-0.0664 2.6367,-0.21094 9.0312,-1.4375 15.203,-9.957 13.746,-18.988 -2.1211,-13.227 1.0352,-26.473 8.8867,-37.32 7.8359,-10.848 19.441,-17.988 32.688,-20.125 2.5273,-0.40234 5.0352,-0.59766 7.5,-0.59766 9.1602,0 16.582,-7.4141 16.582,-16.582 0,-9.1679 -7.418,-16.582 -16.582,-16.582 z"
       id="path93"
       inkscape:export-filename="/home/elena/_developerlena/season-fruits/images/apple.png"
       inkscape:export-xdpi="63"
       inkscape:export-ydpi="63" />
    <path
       d="m 228.87215,429.95649 c -3.6914,-8.3555 -13.422,-12.176 -21.855,-8.4844 -8.3906,3.6914 -12.176,13.484 -8.4844,21.855 5.8789,13.324 12.938,26.926 20.965,40.426 3.1094,5.2148 8.6133,8.0977 14.262,8.0977 2.8828,0 5.8125,-0.74609 8.4688,-2.3281 7.8672,-4.6914 10.445,-14.863 5.7617,-22.73 -7.2539,-12.18 -13.859,-24.918 -19.117,-36.836 z"
       id="path95"
       inkscape:export-filename="/home/elena/_developerlena/season-fruits/images/apple.png"
       inkscape:export-xdpi="63"
       inkscape:export-ydpi="63" />
    <path
       style="fill:#ff0000;fill-opacity:1;stroke:#ffffff;stroke-width:5.65685;stroke-opacity:1"
       d="M 359.21024,780.07621 C 302.17497,747.10169 221.45185,621.00134 204.06828,537.72364 181.29341,428.61844 279.49285,333.39389 388.0468,359.31863 c 42.64368,10.18411 69.44636,10.30211 116.23949,0.51171 96.13924,-20.11495 178.50823,37.54182 189.79655,132.85409 8.56144,72.28793 -74.35613,229.29395 -147.11305,278.56139 -21.11134,14.29557 -26.81161,15.62972 -51.99505,12.16949 -35.07283,-4.81906 -59.73764,-4.90684 -96.16652,-0.34224 -17.52841,2.19634 -32.58661,1.0567 -39.59798,-2.99686 z M 332.34985,636.3961 c 0.85175,-10.15162 -4.8397,-28.33547 -14.16452,-45.25483 -13.12261,-23.81024 -18.17176,-28.28428 -31.92006,-28.28428 -28.48438,0 -31.09941,14.48358 -10.24911,56.76577 17.49346,35.47491 19.25967,37.18631 36.64456,35.50761 15.74539,-1.52039 18.46169,-4.10496 19.68913,-18.73427 z M 281.71134,536.26978 c 3.73352,-3.73352 6.79774,-15.82505 6.80937,-26.87006 0.0396,-37.65415 22.2018,-60.40819 68.65136,-70.48488 19.12042,-4.14795 24.47075,-18.27414 13.34981,-35.24684 -10.28601,-15.69842 -14.2412,-16.06502 -52.0823,-4.82743 -55.77405,16.56311 -93.59461,81.68027 -75.33486,129.70704 5.99569,15.76987 26.46468,19.86411 38.60662,7.72217 z"
       id="path7869"
       transform="scale(0.75)"
       inkscape:export-filename="/home/elena/_developerlena/season-fruits/images/apple.png"
       inkscape:export-xdpi="63"
       inkscape:export-ydpi="63" />
    <path
       style="fill:#008000;fill-opacity:1;stroke:#ffffff;stroke-width:5.65685;stroke-opacity:1"
       d="m 371.5637,252.01958 c -38.46983,-13.72006 -52.29166,-34.7495 -55.96078,-85.14238 l -1.64751,-22.62742 26.27096,0.86452 c 55.31418,1.82027 89.69455,36.8663 89.69455,91.43115 0,22.98414 -0.53259,23.66265 -18.38478,23.42155 -10.11162,-0.13656 -28.09922,-3.7129 -39.97244,-7.94742 z"
       id="path7945"
       transform="scale(0.75)"
       inkscape:export-filename="/home/elena/_developerlena/season-fruits/images/apple.png"
       inkscape:export-xdpi="63"
       inkscape:export-ydpi="63" />
  </g>
</svg>
